<svg
  version="1.0"
  id="Layer_1"
  xmlns="http://www.w3.org/2000/svg"
  xmlns:xlink="http://www.w3.org/1999/xlink"
  viewBox="0 0 512 512"
  enable-background="new 0 0 512 512"
  xml:space="preserve"
  fill="#000000"
>
  <g id="SVGRepo_bgCarrier" stroke-width="0"></g>
  <g
    id="SVGRepo_tracerCarrier"
    stroke-linecap="round"
    stroke-linejoin="round"
  ></g>
  <g id="SVGRepo_iconCarrier">
    {" "}
    <g>
      {" "}
      <g>
        {" "}
        <path
          fill="#4CAF50"
          d="M256,0c141.385,0,256,114.615,256,256s-114.615,256-256,256S0,397.385,0,256S114.615,0,256,0z M256,482 c124.962,0,226-101.038,226-226S380.962,30,256,30S30,131.038,30,256S131.038,482,256,482z"
        ></path>{" "}
      </g>{" "}
      <g>
        {" "}
        <path
          fill="#FFFFFF"
          d="M207.216,130.784l15.558-29.154l15.558,29.154H207.216z M269.154,319.231h-26.309v120.308h26.309V319.231z M256,215.385c-15.738,0-28.615-12.877-28.615-28.615c0-15.738,12.877-28.615,28.615-28.615s28.615,12.877,28.615,28.615 C284.615,202.508,271.738,215.385,256,215.385z M369.846,349.538h-40.923v40.923h-26.308v-40.923h-40.923v-26.308h40.923v-40.923 h26.308v40.923h40.923V349.538z M201.231,322.769v40.923h-26.309v-40.923H201.231z M214.769,275.385c-15.738,0-28.615-12.877-28.615-28.615 c0-15.738,12.877-28.615,28.615-28.615s28.615,12.877,28.615,28.615C243.385,262.508,230.508,275.385,214.769,275.385z"
        ></path>{" "}
      </g>{" "}
    </g>{" "}
  </g>
</svg>
